<svg width="720" height="720" viewBox="0 0 720 720" fill="none" xmlns="http://www.w3.org/2000/svg">
<rect width="720" height="720" rx="130" fill="#E42C53"/>
<path d="M196.061 454.437C184.995 454.261 174.228 450.82 165.112 444.544C155.996 438.268 148.938 429.439 144.825 419.165C140.711 408.89 139.726 397.63 141.992 386.797C144.258 375.964 149.675 366.043 157.562 358.279C165.449 350.515 175.454 345.256 186.321 343.16C197.188 341.065 208.432 342.228 218.64 346.502C228.848 350.777 237.566 357.973 243.697 367.187C249.828 376.4 253.1 387.22 253.102 398.287C252.96 413.29 246.877 427.625 236.185 438.15C225.493 448.675 211.064 454.532 196.061 454.437ZM124.51 238.002C122.616 237.969 120.735 238.313 118.976 239.015C117.217 239.717 115.615 240.762 114.265 242.09C112.914 243.417 111.841 245 111.109 246.747C110.377 248.494 110 250.369 110 252.262V398.073C110.179 420.735 119.341 442.4 135.476 458.314C151.61 474.227 173.399 483.09 196.061 482.958C218.698 483.062 240.454 474.191 256.564 458.288C272.674 442.385 281.826 420.746 282.014 398.109C281.788 375.497 272.62 353.894 256.514 338.022C240.408 322.15 218.673 313.298 196.061 313.403C175.077 313.353 154.796 320.959 139.02 334.794V252.298C139.02 250.404 138.643 248.529 137.911 246.783C137.179 245.036 136.106 243.453 134.755 242.125C133.404 240.798 131.803 239.753 130.044 239.051C128.285 238.349 126.403 238.005 124.51 238.038" fill="white"/>
<path d="M370 460.641C357.705 460.662 345.681 457.035 335.448 450.22C325.215 443.405 317.234 433.708 312.515 422.355C307.795 411.003 306.549 398.505 308.935 386.445C311.32 374.384 317.23 363.302 325.916 354.601C334.602 345.9 345.674 339.971 357.731 337.565C369.787 335.158 382.287 336.383 393.648 341.083C405.008 345.783 414.719 353.747 421.552 363.968C428.385 374.189 432.032 386.207 432.032 398.502C432.022 414.961 425.487 430.744 413.859 442.392C402.231 454.041 386.459 460.603 370 460.641ZM370 320.07C349.198 320.07 329.249 328.334 314.54 343.042C299.832 357.751 291.568 377.7 291.568 398.502C291.568 419.303 299.832 439.252 314.54 453.961C329.249 468.67 349.198 476.933 370 476.933C390.801 476.933 410.75 468.67 425.459 453.961C440.168 439.252 448.431 419.303 448.431 398.502C448.431 377.7 440.168 357.751 425.459 343.042C410.75 328.334 390.801 320.07 370 320.07Z" fill="white"/>
<path d="M460.731 239.749V473.118H610H460.731V239.749Z" fill="white"/>
<path d="M535.526 464.704C522.427 464.725 509.617 460.861 498.716 453.599C487.815 446.337 479.313 436.005 474.286 423.91C469.259 411.815 467.932 398.5 470.475 385.651C473.017 372.802 479.314 360.996 488.568 351.726C497.823 342.457 509.619 336.141 522.464 333.578C535.309 331.015 548.626 332.32 560.729 337.327C572.832 342.335 583.178 350.82 590.457 361.71C597.736 372.599 601.622 385.403 601.622 398.501C601.613 416.038 594.649 432.855 582.259 445.266C569.869 457.676 553.062 464.667 535.526 464.704ZM465.365 240.105C464.302 240.114 463.285 240.536 462.526 241.281C461.768 242.026 461.329 243.036 461.301 244.098V398.394C461.322 413.07 465.693 427.41 473.862 439.602C482.031 451.794 493.631 461.291 507.195 466.892C520.76 472.494 535.681 473.949 550.072 471.073C564.463 468.197 577.678 461.119 588.048 450.734C598.418 440.349 605.477 427.124 608.332 412.728C611.187 398.333 609.711 383.415 604.09 369.858C598.469 356.302 588.955 344.716 576.752 336.564C564.548 328.413 550.201 324.063 535.526 324.063C521.829 324.088 508.406 327.901 496.741 335.08C485.076 342.258 475.624 352.524 469.43 364.74V244.098C469.403 243.063 468.982 242.077 468.253 241.342C467.525 240.607 466.543 240.177 465.508 240.141" fill="white"/>
</svg>
